<?xml version="1.0" standalone="no"?><!DOCTYPE svg PUBLIC "-//W3C//DTD SVG 1.1//EN" "http://www.w3.org/Graphics/SVG/1.1/DTD/svg11.dtd"><svg t="1760767915650" class="icon" viewBox="0 0 1024 1024" version="1.1" xmlns="http://www.w3.org/2000/svg" p-id="4686" xmlns:xlink="http://www.w3.org/1999/xlink" width="200" height="200"><path d="M702.976 613.12a32.5632 32.5632 0 0 1 13.7216 8.96l102.4512 102.4 102.5536-102.4a32.5632 32.5632 0 0 1 13.7728-8.96 23.2448 23.2448 0 0 1 13.6704 0 32.5632 32.5632 0 0 1 13.7728 8.96l2.2016 2.2016c4.9664 4.9664 7.5776 9.216 8.96 13.824a23.2448 23.2448 0 0 1 0 13.6192 32.5632 32.5632 0 0 1-8.96 13.824l-102.5024 102.4 102.5024 102.5536c4.9664 4.9152 7.5776 9.216 8.96 13.7728a23.2448 23.2448 0 0 1 0 13.6704 32.5632 32.5632 0 0 1-8.96 13.7728l-2.2016 2.2016a32.5632 32.5632 0 0 1-13.824 8.96 23.2448 23.2448 0 0 1-13.6192 0 32.5632 32.5632 0 0 1-13.824-8.96L819.2 811.4176l-102.4 102.5024a32.5632 32.5632 0 0 1-13.824 8.96 23.2448 23.2448 0 0 1-13.6704 0 32.5632 32.5632 0 0 1-13.7728-8.96l-2.2016-2.2016a32.5632 32.5632 0 0 1-8.96-13.824 23.2448 23.2448 0 0 1 0-13.6192 32.5632 32.5632 0 0 1 8.96-13.824l102.4-102.5024-102.4-102.4a32.5632 32.5632 0 0 1-8.96-13.824 23.2448 23.2448 0 0 1 0-13.6704 32.5632 32.5632 0 0 1 8.96-13.7728l2.2016-2.2016a32.5632 32.5632 0 0 1 13.824-8.96 23.2448 23.2448 0 0 1 13.6192 0z m193.024-517.12c35.2256 0 64 28.8256 64 64v396.8H896V192a32.0512 32.0512 0 0 0-32-32H160a32.0512 32.0512 0 0 0-32 32V768c0 16.0256 12.8 32 32 32h460.8v64H128c-35.2256 0-64-28.8256-64-64v-640c0-35.2256 28.8256-64 64-64z m-105.6256 233.6256c12.8-12.8 32.0512-12.8 44.8512 0s12.8 32 0 44.8L518.4 691.2c-12.8 9.6256-25.6 9.6256-38.4 3.2256-3.2256 0-3.2256 0-6.4-3.2256l-112.0256-112.0256-134.4 134.4512a30.9248 30.9248 0 0 1-44.8 0 34.304 34.304 0 0 1-3.1744-44.8512l160-159.9488c12.8-12.8 28.8256-12.8 41.6256-3.2256l3.1744 3.2256 112.0256 115.2zM281.6 230.4c35.2256-12.8 80.0256-6.4 108.8 22.4256 25.6 28.7744 35.2256 70.4 19.2 105.5744-16.0256 35.2256-54.4256 57.6-92.8256 57.6-51.2 0-92.7744-41.6256-92.7744-92.8256 0-38.4 22.4256-76.8 57.6-92.7744z m38.4 57.6c-9.6256 0-19.2 3.2256-22.4256 12.8a29.0304 29.0304 0 0 0-9.5744 22.4256c0 15.9744 16.0256 28.7744 35.2256 28.7744a37.4784 37.4784 0 0 0 28.7744-35.2256c0-15.9744-16.0256-28.7744-32-28.7744z" fill="#888888" p-id="4687"></path></svg>