<?xml version="1.0" standalone="no"?><!DOCTYPE svg PUBLIC "-//W3C//DTD SVG 1.1//EN" "http://www.w3.org/Graphics/SVG/1.1/DTD/svg11.dtd"><svg t="1758546283716" class="icon" viewBox="0 0 1024 1024" version="1.1" xmlns="http://www.w3.org/2000/svg" p-id="5759" xmlns:xlink="http://www.w3.org/1999/xlink" width="200" height="200"><path d="M250.197333 565.930667c0-7.850667 2.730667-13.994667 7.850667-19.114667 5.461333-5.12 12.629333-7.509333 21.845333-7.509333h194.901334c9.216 0 16.384 2.389333 21.845333 7.509333 5.461333 5.12 7.850667 11.264 7.850667 19.114667 0 9.216-2.730667 16.725333-7.850667 21.845333s-12.629333 7.850667-21.845333 7.850667H279.893333c-9.216 0-16.384-2.730667-21.845333-7.850667s-7.850667-12.288-7.850667-21.845333z m0-201.728c0-7.509333 2.730667-13.994667 7.850667-18.773334 5.461333-5.12 12.629333-7.509333 21.845333-7.509333h101.034667c9.216 0 16.384 2.389333 21.845333 7.509333 5.461333 4.778667 8.192 11.264 8.192 18.773334 0 9.216-2.730667 16.384-8.192 21.845333-5.461333 5.461333-12.629333 8.192-21.845333 8.192H279.893333c-9.216 0-16.384-2.730667-21.845333-7.850667s-7.850667-12.970667-7.850667-22.186666z m33.792 302.762666c0-7.509333 3.072-14.336 9.557334-20.48 6.144-6.144 13.312-9.557333 20.48-9.557333 8.874667 0 15.701333 3.072 21.162666 9.216s8.192 12.970667 8.192 20.821333c0 9.216-2.730667 16.725333-7.850666 22.186667-5.12 5.461333-12.288 7.850667-21.504 7.850667a29.696 29.696 0 0 1-20.821334-8.192c-6.485333-5.802667-9.216-12.970667-9.216-21.845334z m48.469334-202.410666c0-7.850667 2.389333-15.018667 7.509333-20.821334 5.12-6.144 11.264-9.216 18.432-9.216 8.874667 0 16.384 3.072 21.845333 9.216 5.461333 6.144 8.192 12.970667 8.192 20.821334 0 9.216-2.730667 16.725333-7.850666 22.186666-5.461333 5.461333-12.629333 7.850667-22.186667 7.850667-7.850667 0-13.994667-2.730667-18.773333-8.192s-7.168-12.629333-7.168-21.845333z m33.792 202.410666a29.696 29.696 0 0 1 30.037333-30.037333h130.730667l30.037333 30.037333c0 8.874667-3.072 16.042667-9.216 21.845334s-12.970667 8.192-20.821333 8.192h-130.730667c-9.216 0-16.725333-2.730667-22.186667-8.192s-7.850667-12.629333-7.850666-21.845334z m45.056-202.410666c0-7.509333 3.072-14.336 9.557333-20.48 6.144-6.144 13.312-9.557333 20.48-9.557334h130.730667c8.874667 0 16.042667 3.072 21.504 9.216 5.461333 6.144 8.192 12.970667 8.192 20.821334 0 9.216-2.730667 16.725333-7.850667 22.186666-5.461333 5.461333-12.629333 7.850667-21.845333 7.850667h-130.730667a29.696 29.696 0 0 1-20.821333-8.192c-6.144-5.461333-9.216-12.629333-9.216-21.845333z m25.941333-100.352c0-7.509333 2.730667-13.994667 8.192-18.773334 5.461333-4.778667 12.629333-7.509333 21.845333-7.509333h194.901334c7.850667 0 14.677333 2.730667 20.821333 7.850667 6.144 5.12 9.216 11.264 9.216 18.432 0 8.874667-3.072 16.384-9.216 21.845333-6.144 5.461333-12.970667 8.192-20.821333 8.192h-194.901334c-9.216 0-16.725333-2.730667-22.186666-8.192-5.461333-5.461333-7.850667-12.629333-7.850667-21.845333z m89.770667 201.728c0-7.168 3.072-13.653333 9.216-18.773334a31.607467 31.607467 0 0 1 41.642666 0 23.893333 23.893333 0 0 1 9.216 18.773334c0 8.874667-3.072 16.042667-9.216 21.504-6.144 5.461333-12.970667 8.192-20.821333 8.192a29.696 29.696 0 0 1-20.821333-8.192c-6.144-5.12-9.216-12.288-9.216-21.504z m52.565333 101.034666c0-7.850667 2.730667-15.018667 8.192-20.821333 5.461333-6.144 12.629333-9.216 21.504-9.216h63.829333c8.874667 0 16.042667 3.072 21.504 8.874667 5.461333 5.802667 8.192 12.970667 8.192 21.162666 0 9.216-2.730667 16.725333-7.850666 22.186667-5.12 5.461333-12.629333 7.850667-21.845334 7.850667h-63.829333c-9.216 0-16.384-2.730667-21.845333-7.850667-5.12-5.461333-7.850667-12.970667-7.850667-22.186667z m29.696-101.034666c0-7.168 3.072-13.653333 9.216-18.773334 6.144-5.12 12.970667-7.850667 20.821333-7.850666h104.789334c7.509333 0 13.653333 2.730667 18.432 7.850666 4.778667 5.12 7.509333 11.264 7.509333 18.773334 0 9.216-2.389333 16.384-7.168 21.845333-4.778667 5.461333-10.922667 7.850667-18.773333 7.850667h-104.789334a29.696 29.696 0 0 1-20.821333-8.192c-6.144-5.12-9.216-12.288-9.216-21.504z m15.018667-101.376c0-7.509333 3.072-14.336 9.557333-20.48 6.144-6.144 13.312-9.557333 20.48-9.557334h66.901333c7.168 0 13.312 3.072 18.432 9.216 5.12 6.144 7.850667 12.970667 7.850667 20.821334 0 9.216-2.389333 16.384-7.509333 21.845333-4.778667 5.461333-11.264 8.192-18.773334 8.192h-66.901333a29.696 29.696 0 0 1-20.821333-8.192c-6.144-5.461333-9.216-12.629333-9.216-21.845333z m93.525333-100.352c0-7.509333 2.389333-13.653333 7.509333-18.773334 5.12-5.12 11.264-7.509333 18.773334-7.509333 9.216 0 16.384 2.389333 21.845333 7.509333 5.461333 4.778667 8.192 11.264 8.192 18.773334 0 9.216-2.730667 16.384-8.192 21.845333-5.461333 5.461333-12.629333 8.192-21.845333 8.192-7.850667 0-13.994667-2.730667-18.773334-8.192-5.12-5.461333-7.509333-12.629333-7.509333-21.845333z" p-id="5760" fill="#cdcdcd"></path></svg>